<svg version="1.1" xmlns="http://www.w3.org/2000/svg" xmlns:xlink="http://www.w3.org/1999/xlink" width="459.23945" height="1178.94744" viewBox="0,0,459.23945,1178.94744"><g transform="translate(-11.96923,409.99388)"><g data-paper-data="{&quot;isPaintingLayer&quot;:true}" fill="#ffffff" fill-rule="nonzero" stroke="none" stroke-width="0" stroke-linecap="butt" stroke-linejoin="miter" stroke-miterlimit="10" stroke-dasharray="" stroke-dashoffset="0" style="mix-blend-mode: normal"><g><g><path d="M15.66898,-404.50612l-1.69975,-3.05955l4.37079,-2.42821l1.69975,3.05956z"/><path d="M50.58203,-398.87155l1.09677,-3.32372l4.74817,1.56682l-1.09677,3.32372z"/><path d="M32.66898,-375.00611l-1.69975,-3.05955l4.37079,-2.42822l1.69975,3.05955z"/><path d="M62.66898,-366.00611l-1.69975,-3.05955l4.37079,-2.42822l1.69975,3.05955z"/><path d="M91.41898,-391.75611l-1.69975,-3.05955l4.37079,-2.42821l1.69975,3.05955z"/><path d="M120.16898,-367.25611l-1.69975,-3.05955l4.37079,-2.42822l1.69975,3.05955z"/><path d="M152.96923,-384.93433l1.69975,-3.05955l4.37079,2.42822l-1.69975,3.05955z" data-paper-data="{&quot;index&quot;:null}"/><path d="M185.91898,-369.25611l-1.69975,-3.05955l4.37079,-2.42822l1.69975,3.05955z"/><path d="M216.80787,-390.36722l-1.69975,-3.05955l4.37079,-2.42821l1.69975,3.05955z"/><path d="M246.39511,-401.59091l-1.96976,-2.8931l4.133,-2.81395l1.96977,2.8931z"/><path d="M266.95066,-381.14647l-1.96976,-2.8931l4.133,-2.81395l1.96977,2.8931z"/><path d="M295.4809,-398.46042l1.96977,-2.8931l4.133,2.81396l-1.96976,2.8931z" data-paper-data="{&quot;index&quot;:null}"/><path d="M240.1059,-362.71042l1.96977,-2.8931l4.133,2.81396l-1.96976,2.8931z" data-paper-data="{&quot;index&quot;:null}"/><path d="M285.57566,-355.64647l-1.96976,-2.8931l4.133,-2.81395l1.96977,2.8931z"/><path d="M324.6059,-381.46042l1.96977,-2.8931l4.133,2.81396l-1.96976,2.8931z" data-paper-data="{&quot;index&quot;:null}"/><path d="M350.57566,-392.02147l-1.96976,-2.8931l4.133,-2.81395l1.96977,2.8931z"/><path d="M351.95066,-362.27147l-1.96976,-2.8931l4.133,-2.81395l1.96977,2.8931z"/><path d="M378.9809,-384.08542l1.96977,-2.8931l4.133,2.81396l-1.96976,2.8931z" data-paper-data="{&quot;index&quot;:null}"/><path d="M402.4809,-375.52206l1.96977,-2.95646l4.133,2.87559l-1.96976,2.95647z" data-paper-data="{&quot;index&quot;:null}"/><path d="M425.20066,-383.14647l-1.96976,-2.95647l4.133,-2.87559l1.96977,2.95646z"/><path d="M454.07566,-379.52147l-1.96976,-2.95647l4.133,-2.87559l1.96977,2.95646z"/></g><g data-paper-data="{&quot;index&quot;:null}"><path d="M450.13814,-339.93431l1.69975,-3.05956l4.37079,2.42821l-1.69975,3.05955z"/><path d="M414.84771,-330.30472l-1.09677,-3.32372l4.74817,-1.56682l1.09677,3.32372z"/><path d="M433.13814,-310.43432l1.69975,-3.05955l4.37079,2.42822l-1.69975,3.05955z"/><path d="M403.13814,-301.43432l1.69975,-3.05955l4.37079,2.42822l-1.69975,3.05955z"/><path d="M374.38814,-327.18431l1.69975,-3.05955l4.37079,2.42821l-1.69975,3.05955z"/><path d="M345.63814,-302.68432l1.69975,-3.05955l4.37079,2.42822l-1.69975,3.05955z"/><path d="M312.83789,-315.5061l-1.69975,-3.05955l4.37079,-2.42822l1.69975,3.05955z" data-paper-data="{&quot;index&quot;:null}"/><path d="M279.88814,-304.68432l1.69975,-3.05955l4.37079,2.42822l-1.69975,3.05955z"/><path d="M248.99924,-325.79542l1.69975,-3.05955l4.37079,2.42821l-1.69975,3.05955z"/><path d="M219.64979,-337.40485l1.96977,-2.8931l4.133,2.81395l-1.96976,2.8931z"/><path d="M199.09423,-316.9604l1.96977,-2.8931l4.133,2.81395l-1.96976,2.8931z"/><path d="M170.56399,-328.64645l-1.96976,-2.8931l4.133,-2.81396l1.96977,2.8931z" data-paper-data="{&quot;index&quot;:null}"/><path d="M225.939,-292.89644l-1.96976,-2.8931l4.133,-2.81396l1.96977,2.8931z" data-paper-data="{&quot;index&quot;:null}"/><path d="M180.46923,-291.46042l1.96977,-2.8931l4.133,2.81395l-1.96976,2.8931z"/><path d="M141.43899,-311.64645l-1.96976,-2.8931l4.133,-2.81396l1.96977,2.8931z" data-paper-data="{&quot;index&quot;:null}"/><path d="M115.46923,-327.8354l1.96977,-2.8931l4.133,2.81395l-1.96976,2.8931z"/><path d="M114.09423,-298.08542l1.96977,-2.8931l4.133,2.81395l-1.96976,2.8931z"/><path d="M87.06399,-314.27145l-1.96976,-2.8931l4.133,-2.81396l1.96977,2.8931z" data-paper-data="{&quot;index&quot;:null}"/><path d="M63.56399,-305.64645l-1.96976,-2.95647l4.133,-2.87559l1.96977,2.95646z" data-paper-data="{&quot;index&quot;:null}"/><path d="M40.84423,-319.02206l1.96977,-2.95646l4.133,2.87559l-1.96976,2.95647z"/><path d="M11.96923,-315.39706l1.96977,-2.95646l4.133,2.87559l-1.96976,2.95647z"/></g><g data-paper-data="{&quot;index&quot;:null}"><path d="M21.03978,-223.70601l-1.69975,3.05956l-4.37079,-2.42821l1.69975,-3.05955z"/><path d="M56.33021,-233.3356l1.09677,3.32372l-4.74817,1.56682l-1.09677,-3.32372z"/><path d="M38.03978,-253.20601l-1.69975,3.05955l-4.37079,-2.42822l1.69975,-3.05955z"/><path d="M68.03978,-262.20601l-1.69975,3.05955l-4.37079,-2.42822l1.69975,-3.05955z"/><path d="M96.78978,-236.45601l-1.69975,3.05955l-4.37079,-2.42821l1.69975,-3.05955z"/><path d="M125.53978,-260.95601l-1.69975,3.05955l-4.37079,-2.42822l1.69975,-3.05955z"/><path d="M158.34003,-248.13423l1.69975,3.05955l-4.37079,2.42822l-1.69975,-3.05955z" data-paper-data="{&quot;index&quot;:null}"/><path d="M191.28978,-258.95601l-1.69975,3.05955l-4.37079,-2.42822l1.69975,-3.05955z"/><path d="M222.17867,-237.8449l-1.69975,3.05955l-4.37079,-2.42821l1.69975,-3.05955z"/><path d="M251.52813,-226.23548l-1.96977,2.8931l-4.133,-2.81395l1.96976,-2.8931z"/><path d="M272.08368,-246.67993l-1.96977,2.8931l-4.133,-2.81395l1.96976,-2.8931z"/><path d="M300.61392,-234.99388l1.96976,2.8931l-4.133,2.81396l-1.96977,-2.8931z" data-paper-data="{&quot;index&quot;:null}"/><path d="M245.23892,-270.74388l1.96976,2.8931l-4.133,2.81396l-1.96977,-2.8931z" data-paper-data="{&quot;index&quot;:null}"/><path d="M290.70868,-272.17993l-1.96977,2.8931l-4.133,-2.81395l1.96976,-2.8931z"/><path d="M329.73892,-251.99388l1.96976,2.8931l-4.133,2.81396l-1.96977,-2.8931z" data-paper-data="{&quot;index&quot;:null}"/><path d="M355.70868,-235.80493l-1.96977,2.8931l-4.133,-2.81395l1.96976,-2.8931z"/><path d="M357.08368,-265.55493l-1.96977,2.8931l-4.133,-2.81395l1.96976,-2.8931z"/><path d="M384.11392,-249.36888l1.96976,2.8931l-4.133,2.81396l-1.96977,-2.8931z" data-paper-data="{&quot;index&quot;:null}"/><path d="M407.61392,-257.99388l1.96976,2.95647l-4.133,2.87559l-1.96977,-2.95646z" data-paper-data="{&quot;index&quot;:null}"/><path d="M430.33368,-244.61827l-1.96977,2.95646l-4.133,-2.87559l1.96976,-2.95647z"/><path d="M459.20868,-248.24327l-1.96977,2.95646l-4.133,-2.87559l1.96976,-2.95647z"/></g><g data-paper-data="{&quot;index&quot;:null}"><path d="M455.50893,-159.13422l1.69975,3.05955l-4.37079,2.42821l-1.69975,-3.05956z"/><path d="M420.59588,-164.76879l-1.09677,3.32372l-4.74817,-1.56682l1.09677,-3.32372z"/><path d="M438.50893,-188.63423l1.69975,3.05955l-4.37079,2.42822l-1.69975,-3.05955z"/><path d="M408.50893,-197.63423l1.69975,3.05955l-4.37079,2.42822l-1.69975,-3.05955z"/><path d="M379.75893,-171.88422l1.69975,3.05955l-4.37079,2.42821l-1.69975,-3.05955z"/><path d="M351.00893,-196.38423l1.69975,3.05955l-4.37079,2.42822l-1.69975,-3.05955z"/><path d="M318.20868,-178.70601l-1.69975,3.05955l-4.37079,-2.42822l1.69975,-3.05955z" data-paper-data="{&quot;index&quot;:null}"/><path d="M285.25892,-194.38423l1.69975,3.05955l-4.37079,2.42822l-1.69975,-3.05955z"/><path d="M254.37003,-173.27313l1.69975,3.05955l-4.37079,2.42821l-1.69975,-3.05955z"/><path d="M224.7828,-162.04942l1.96976,2.8931l-4.133,2.81395l-1.96977,-2.8931z"/><path d="M204.22725,-182.49386l1.96976,2.8931l-4.133,2.81395l-1.96977,-2.8931z"/><path d="M175.69701,-165.17993l-1.96977,2.8931l-4.133,-2.81396l1.96976,-2.8931z" data-paper-data="{&quot;index&quot;:null}"/><path d="M231.07201,-200.92993l-1.96977,2.8931l-4.133,-2.81396l1.96976,-2.8931z" data-paper-data="{&quot;index&quot;:null}"/><path d="M185.60225,-207.99386l1.96976,2.8931l-4.133,2.81395l-1.96977,-2.8931z"/><path d="M146.572,-182.17993l-1.96977,2.8931l-4.133,-2.81396l1.96976,-2.8931z" data-paper-data="{&quot;index&quot;:null}"/><path d="M120.60224,-171.61887l1.96976,2.8931l-4.133,2.81395l-1.96977,-2.8931z"/><path d="M119.22724,-201.36886l1.96976,2.8931l-4.133,2.81395l-1.96977,-2.8931z"/><path d="M92.19701,-179.55493l-1.96977,2.8931l-4.133,-2.81396l1.96976,-2.8931z" data-paper-data="{&quot;index&quot;:null}"/><path d="M68.69701,-188.11827l-1.96977,2.95646l-4.133,-2.87559l1.96976,-2.95647z" data-paper-data="{&quot;index&quot;:null}"/><path d="M45.97725,-180.49386l1.96976,2.95647l-4.133,2.87559l-1.96977,-2.95646z"/><path d="M17.10225,-184.11886l1.96976,2.95647l-4.133,2.87559l-1.96977,-2.95646z"/></g><g><path d="M21.66899,-125.5061l-1.69975,-3.05955l4.37079,-2.42821l1.69975,3.05956z"/><path d="M56.58203,-119.87153l1.09677,-3.32372l4.74817,1.56682l-1.09677,3.32372z"/><path d="M38.66899,-96.00609l-1.69975,-3.05955l4.37079,-2.42822l1.69975,3.05955z"/><path d="M68.66899,-87.00609l-1.69975,-3.05955l4.37079,-2.42822l1.69975,3.05955z"/><path d="M97.41899,-112.75609l-1.69975,-3.05955l4.37079,-2.42821l1.69975,3.05955z"/><path d="M126.16899,-88.25609l-1.69975,-3.05955l4.37079,-2.42822l1.69975,3.05955z"/><path d="M158.96924,-105.93432l1.69975,-3.05955l4.37079,2.42822l-1.69975,3.05955z" data-paper-data="{&quot;index&quot;:null}"/><path d="M191.91899,-90.25609l-1.69975,-3.05955l4.37079,-2.42822l1.69975,3.05955z"/><path d="M222.80788,-111.3672l-1.69975,-3.05955l4.37079,-2.42821l1.69975,3.05955z"/><path d="M252.39512,-122.59089l-1.96976,-2.8931l4.133,-2.81395l1.96977,2.8931z"/><path d="M272.95067,-102.14645l-1.96976,-2.8931l4.133,-2.81395l1.96977,2.8931z"/><path d="M301.48091,-119.46041l1.96977,-2.8931l4.133,2.81396l-1.96976,2.8931z" data-paper-data="{&quot;index&quot;:null}"/><path d="M246.10591,-83.7104l1.96977,-2.8931l4.133,2.81396l-1.96976,2.8931z" data-paper-data="{&quot;index&quot;:null}"/><path d="M291.57567,-76.64645l-1.96976,-2.8931l4.133,-2.81395l1.96977,2.8931z"/><path d="M330.60591,-102.46041l1.96977,-2.8931l4.133,2.81396l-1.96976,2.8931z" data-paper-data="{&quot;index&quot;:null}"/><path d="M356.57567,-113.02145l-1.96976,-2.8931l4.133,-2.81395l1.96977,2.8931z"/><path d="M357.95067,-83.27145l-1.96976,-2.8931l4.133,-2.81395l1.96977,2.8931z"/><path d="M384.98091,-105.08541l1.96977,-2.8931l4.133,2.81396l-1.96976,2.8931z" data-paper-data="{&quot;index&quot;:null}"/><path d="M408.48091,-96.52204l1.96977,-2.95646l4.133,2.87559l-1.96976,2.95647z" data-paper-data="{&quot;index&quot;:null}"/><path d="M431.20067,-104.14645l-1.96976,-2.95647l4.133,-2.87559l1.96977,2.95646z"/><path d="M460.07567,-100.52145l-1.96976,-2.95647l4.133,-2.87559l1.96977,2.95646z"/></g><g data-paper-data="{&quot;index&quot;:null}"><path d="M456.13814,-60.9343l1.69975,-3.05956l4.37079,2.42821l-1.69975,3.05955z"/><path d="M420.84771,-51.30471l-1.09677,-3.32372l4.74817,-1.56682l1.09677,3.32372z"/><path d="M439.13814,-31.43431l1.69975,-3.05955l4.37079,2.42822l-1.69975,3.05955z"/><path d="M409.13814,-22.43431l1.69975,-3.05955l4.37079,2.42822l-1.69975,3.05955z"/><path d="M380.38814,-48.1843l1.69975,-3.05955l4.37079,2.42821l-1.69975,3.05955z"/><path d="M351.63814,-23.68431l1.69975,-3.05955l4.37079,2.42822l-1.69975,3.05955z"/><path d="M318.83789,-36.50609l-1.69975,-3.05955l4.37079,-2.42822l1.69975,3.05955z" data-paper-data="{&quot;index&quot;:null}"/><path d="M285.88813,-25.68431l1.69975,-3.05955l4.37079,2.42822l-1.69975,3.05955z"/><path d="M254.99924,-46.79541l1.69975,-3.05955l4.37079,2.42821l-1.69975,3.05955z"/><path d="M225.64979,-58.40484l1.96977,-2.8931l4.133,2.81395l-1.96976,2.8931z"/><path d="M205.09424,-37.9604l1.96977,-2.8931l4.133,2.81395l-1.96976,2.8931z"/><path d="M176.564,-49.64644l-1.96976,-2.8931l4.133,-2.81396l1.96977,2.8931z" data-paper-data="{&quot;index&quot;:null}"/><path d="M231.939,-13.89644l-1.96976,-2.8931l4.133,-2.81396l1.96977,2.8931z" data-paper-data="{&quot;index&quot;:null}"/><path d="M186.46924,-12.4604l1.96977,-2.8931l4.133,2.81395l-1.96976,2.8931z"/><path d="M147.439,-32.64644l-1.96976,-2.8931l4.133,-2.81396l1.96977,2.8931z" data-paper-data="{&quot;index&quot;:null}"/><path d="M121.46924,-48.8354l1.96977,-2.8931l4.133,2.81395l-1.96976,2.8931z"/><path d="M120.09424,-19.0854l1.96977,-2.8931l4.133,2.81395l-1.96976,2.8931z"/><path d="M93.064,-35.27144l-1.96976,-2.8931l4.133,-2.81396l1.96977,2.8931z" data-paper-data="{&quot;index&quot;:null}"/><path d="M69.564,-26.64644l-1.96976,-2.95647l4.133,-2.87559l1.96977,2.95646z" data-paper-data="{&quot;index&quot;:null}"/><path d="M46.84424,-40.02205l1.96977,-2.95646l4.133,2.87559l-1.96976,2.95647z"/><path d="M17.96924,-36.39705l1.96977,-2.95646l4.133,2.87559l-1.96976,2.95647z"/></g></g><g><g><path d="M22.66898,-4.50612l-1.69975,-3.05955l4.37079,-2.42821l1.69975,3.05956z"/><path d="M57.58203,1.12845l1.09677,-3.32372l4.74817,1.56682l-1.09677,3.32372z"/><path d="M39.66898,24.99389l-1.69975,-3.05955l4.37079,-2.42822l1.69975,3.05955z"/><path d="M69.66898,33.99389l-1.69975,-3.05955l4.37079,-2.42822l1.69975,3.05955z"/><path d="M98.41898,8.24389l-1.69975,-3.05955l4.37079,-2.42821l1.69975,3.05955z"/><path d="M127.16898,32.74389l-1.69975,-3.05955l4.37079,-2.42822l1.69975,3.05955z"/><path d="M159.96923,15.06567l1.69975,-3.05955l4.37079,2.42822l-1.69975,3.05955z" data-paper-data="{&quot;index&quot;:null}"/><path d="M192.91898,30.74389l-1.69975,-3.05955l4.37079,-2.42822l1.69975,3.05955z"/><path d="M223.80787,9.63278l-1.69975,-3.05955l4.37079,-2.42821l1.69975,3.05955z"/><path d="M253.39511,-1.59091l-1.96976,-2.8931l4.133,-2.81395l1.96977,2.8931z"/><path d="M273.95066,18.85353l-1.96976,-2.8931l4.133,-2.81395l1.96977,2.8931z"/><path d="M302.4809,1.53958l1.96977,-2.8931l4.133,2.81396l-1.96976,2.8931z" data-paper-data="{&quot;index&quot;:null}"/><path d="M247.1059,37.28958l1.96977,-2.8931l4.133,2.81396l-1.96976,2.8931z" data-paper-data="{&quot;index&quot;:null}"/><path d="M292.57566,44.35353l-1.96976,-2.8931l4.133,-2.81395l1.96977,2.8931z"/><path d="M331.6059,18.53958l1.96977,-2.8931l4.133,2.81396l-1.96976,2.8931z" data-paper-data="{&quot;index&quot;:null}"/><path d="M357.57566,7.97853l-1.96976,-2.8931l4.133,-2.81395l1.96977,2.8931z"/><path d="M358.95066,37.72853l-1.96976,-2.8931l4.133,-2.81395l1.96977,2.8931z"/><path d="M385.9809,15.91458l1.96977,-2.8931l4.133,2.81396l-1.96976,2.8931z" data-paper-data="{&quot;index&quot;:null}"/><path d="M409.4809,24.47794l1.96977,-2.95646l4.133,2.87559l-1.96976,2.95647z" data-paper-data="{&quot;index&quot;:null}"/><path d="M432.20066,16.85353l-1.96976,-2.95647l4.133,-2.87559l1.96977,2.95646z"/><path d="M461.07566,20.47853l-1.96976,-2.95647l4.133,-2.87559l1.96977,2.95646z"/></g><g data-paper-data="{&quot;index&quot;:null}"><path d="M457.13814,60.06569l1.69975,-3.05956l4.37079,2.42821l-1.69975,3.05955z"/><path d="M421.84771,69.69528l-1.09677,-3.32372l4.74817,-1.56682l1.09677,3.32372z"/><path d="M440.13814,89.56568l1.69975,-3.05955l4.37079,2.42822l-1.69975,3.05955z"/><path d="M410.13814,98.56568l1.69975,-3.05955l4.37079,2.42822l-1.69975,3.05955z"/><path d="M381.38814,72.81569l1.69975,-3.05955l4.37079,2.42821l-1.69975,3.05955z"/><path d="M352.63814,97.31568l1.69975,-3.05955l4.37079,2.42822l-1.69975,3.05955z"/><path d="M319.83789,84.4939l-1.69975,-3.05955l4.37079,-2.42822l1.69975,3.05955z" data-paper-data="{&quot;index&quot;:null}"/><path d="M286.88814,95.31568l1.69975,-3.05955l4.37079,2.42822l-1.69975,3.05955z"/><path d="M255.99924,74.20458l1.69975,-3.05955l4.37079,2.42821l-1.69975,3.05955z"/><path d="M226.64979,62.59515l1.96977,-2.8931l4.133,2.81395l-1.96976,2.8931z"/><path d="M206.09423,83.0396l1.96977,-2.8931l4.133,2.81395l-1.96976,2.8931z"/><path d="M177.56399,71.35355l-1.96976,-2.8931l4.133,-2.81396l1.96977,2.8931z" data-paper-data="{&quot;index&quot;:null}"/><path d="M232.939,107.10356l-1.96976,-2.8931l4.133,-2.81396l1.96977,2.8931z" data-paper-data="{&quot;index&quot;:null}"/><path d="M187.46923,108.53958l1.96977,-2.8931l4.133,2.81395l-1.96976,2.8931z"/><path d="M148.43899,88.35355l-1.96976,-2.8931l4.133,-2.81396l1.96977,2.8931z" data-paper-data="{&quot;index&quot;:null}"/><path d="M122.46923,72.1646l1.96977,-2.8931l4.133,2.81395l-1.96976,2.8931z"/><path d="M121.09423,101.91458l1.96977,-2.8931l4.133,2.81395l-1.96976,2.8931z"/><path d="M94.06399,85.72855l-1.96976,-2.8931l4.133,-2.81396l1.96977,2.8931z" data-paper-data="{&quot;index&quot;:null}"/><path d="M70.56399,94.35355l-1.96976,-2.95647l4.133,-2.87559l1.96977,2.95646z" data-paper-data="{&quot;index&quot;:null}"/><path d="M47.84423,80.97794l1.96977,-2.95646l4.133,2.87559l-1.96976,2.95647z"/><path d="M18.96923,84.60294l1.96977,-2.95646l4.133,2.87559l-1.96976,2.95647z"/></g><g data-paper-data="{&quot;index&quot;:null}"><path d="M28.03978,176.29399l-1.69975,3.05956l-4.37079,-2.42821l1.69975,-3.05955z"/><path d="M63.33021,166.6644l1.09677,3.32372l-4.74817,1.56682l-1.09677,-3.32372z"/><path d="M45.03978,146.79399l-1.69975,3.05955l-4.37079,-2.42822l1.69975,-3.05955z"/><path d="M75.03978,137.79399l-1.69975,3.05955l-4.37079,-2.42822l1.69975,-3.05955z"/><path d="M103.78978,163.54399l-1.69975,3.05955l-4.37079,-2.42821l1.69975,-3.05955z"/><path d="M132.53978,139.04399l-1.69975,3.05955l-4.37079,-2.42822l1.69975,-3.05955z"/><path d="M165.34003,151.86577l1.69975,3.05955l-4.37079,2.42822l-1.69975,-3.05955z" data-paper-data="{&quot;index&quot;:null}"/><path d="M198.28978,141.04399l-1.69975,3.05955l-4.37079,-2.42822l1.69975,-3.05955z"/><path d="M229.17867,162.1551l-1.69975,3.05955l-4.37079,-2.42821l1.69975,-3.05955z"/><path d="M258.52813,173.76452l-1.96977,2.8931l-4.133,-2.81395l1.96976,-2.8931z"/><path d="M279.08368,153.32007l-1.96977,2.8931l-4.133,-2.81395l1.96976,-2.8931z"/><path d="M307.61392,165.00612l1.96976,2.8931l-4.133,2.81396l-1.96977,-2.8931z" data-paper-data="{&quot;index&quot;:null}"/><path d="M252.23892,129.25612l1.96976,2.8931l-4.133,2.81396l-1.96977,-2.8931z" data-paper-data="{&quot;index&quot;:null}"/><path d="M297.70868,127.82007l-1.96977,2.8931l-4.133,-2.81395l1.96976,-2.8931z"/><path d="M336.73892,148.00612l1.96976,2.8931l-4.133,2.81396l-1.96977,-2.8931z" data-paper-data="{&quot;index&quot;:null}"/><path d="M362.70868,164.19507l-1.96977,2.8931l-4.133,-2.81395l1.96976,-2.8931z"/><path d="M364.08368,134.44507l-1.96977,2.8931l-4.133,-2.81395l1.96976,-2.8931z"/><path d="M391.11392,150.63112l1.96976,2.8931l-4.133,2.81396l-1.96977,-2.8931z" data-paper-data="{&quot;index&quot;:null}"/><path d="M414.61392,142.00612l1.96976,2.95647l-4.133,2.87559l-1.96977,-2.95646z" data-paper-data="{&quot;index&quot;:null}"/><path d="M437.33368,155.38173l-1.96977,2.95646l-4.133,-2.87559l1.96976,-2.95647z"/><path d="M466.20868,151.75673l-1.96977,2.95646l-4.133,-2.87559l1.96976,-2.95647z"/></g><g data-paper-data="{&quot;index&quot;:null}"><path d="M462.50893,240.86578l1.69975,3.05955l-4.37079,2.42821l-1.69975,-3.05956z"/><path d="M427.59588,235.23121l-1.09677,3.32372l-4.74817,-1.56682l1.09677,-3.32372z"/><path d="M445.50893,211.36577l1.69975,3.05955l-4.37079,2.42822l-1.69975,-3.05955z"/><path d="M415.50893,202.36577l1.69975,3.05955l-4.37079,2.42822l-1.69975,-3.05955z"/><path d="M386.75893,228.11578l1.69975,3.05955l-4.37079,2.42821l-1.69975,-3.05955z"/><path d="M358.00893,203.61577l1.69975,3.05955l-4.37079,2.42822l-1.69975,-3.05955z"/><path d="M325.20868,221.29399l-1.69975,3.05955l-4.37079,-2.42822l1.69975,-3.05955z" data-paper-data="{&quot;index&quot;:null}"/><path d="M292.25892,205.61577l1.69975,3.05955l-4.37079,2.42822l-1.69975,-3.05955z"/><path d="M261.37003,226.72687l1.69975,3.05955l-4.37079,2.42821l-1.69975,-3.05955z"/><path d="M231.7828,237.95058l1.96976,2.8931l-4.133,2.81395l-1.96977,-2.8931z"/><path d="M211.22725,217.50614l1.96976,2.8931l-4.133,2.81395l-1.96977,-2.8931z"/><path d="M182.69701,234.82007l-1.96977,2.8931l-4.133,-2.81396l1.96976,-2.8931z" data-paper-data="{&quot;index&quot;:null}"/><path d="M238.07201,199.07007l-1.96977,2.8931l-4.133,-2.81396l1.96976,-2.8931z" data-paper-data="{&quot;index&quot;:null}"/><path d="M192.60225,192.00614l1.96976,2.8931l-4.133,2.81395l-1.96977,-2.8931z"/><path d="M153.572,217.82007l-1.96977,2.8931l-4.133,-2.81396l1.96976,-2.8931z" data-paper-data="{&quot;index&quot;:null}"/><path d="M127.60224,228.38113l1.96976,2.8931l-4.133,2.81395l-1.96977,-2.8931z"/><path d="M126.22724,198.63114l1.96976,2.8931l-4.133,2.81395l-1.96977,-2.8931z"/><path d="M99.19701,220.44507l-1.96977,2.8931l-4.133,-2.81396l1.96976,-2.8931z" data-paper-data="{&quot;index&quot;:null}"/><path d="M75.69701,211.88173l-1.96977,2.95646l-4.133,-2.87559l1.96976,-2.95647z" data-paper-data="{&quot;index&quot;:null}"/><path d="M52.97725,219.50614l1.96976,2.95647l-4.133,2.87559l-1.96977,-2.95646z"/><path d="M24.10225,215.88114l1.96976,2.95647l-4.133,2.87559l-1.96977,-2.95646z"/></g><g><path d="M28.66899,274.4939l-1.69975,-3.05955l4.37079,-2.42821l1.69975,3.05956z"/><path d="M63.58203,280.12847l1.09677,-3.32372l4.74817,1.56682l-1.09677,3.32372z"/><path d="M45.66899,303.99391l-1.69975,-3.05955l4.37079,-2.42822l1.69975,3.05955z"/><path d="M75.66899,312.99391l-1.69975,-3.05955l4.37079,-2.42822l1.69975,3.05955z"/><path d="M104.41899,287.24391l-1.69975,-3.05955l4.37079,-2.42821l1.69975,3.05955z"/><path d="M133.16899,311.74391l-1.69975,-3.05955l4.37079,-2.42822l1.69975,3.05955z"/><path d="M165.96924,294.06568l1.69975,-3.05955l4.37079,2.42822l-1.69975,3.05955z" data-paper-data="{&quot;index&quot;:null}"/><path d="M198.91899,309.74391l-1.69975,-3.05955l4.37079,-2.42822l1.69975,3.05955z"/><path d="M229.80788,288.6328l-1.69975,-3.05955l4.37079,-2.42821l1.69975,3.05955z"/><path d="M259.39512,277.40911l-1.96976,-2.8931l4.133,-2.81395l1.96977,2.8931z"/><path d="M279.95067,297.85355l-1.96976,-2.8931l4.133,-2.81395l1.96977,2.8931z"/><path d="M308.48091,280.53959l1.96977,-2.8931l4.133,2.81396l-1.96976,2.8931z" data-paper-data="{&quot;index&quot;:null}"/><path d="M253.10591,316.2896l1.96977,-2.8931l4.133,2.81396l-1.96976,2.8931z" data-paper-data="{&quot;index&quot;:null}"/><path d="M298.57567,323.35355l-1.96976,-2.8931l4.133,-2.81395l1.96977,2.8931z"/><path d="M337.60591,297.53959l1.96977,-2.8931l4.133,2.81396l-1.96976,2.8931z" data-paper-data="{&quot;index&quot;:null}"/><path d="M363.57567,286.97855l-1.96976,-2.8931l4.133,-2.81395l1.96977,2.8931z"/><path d="M364.95067,316.72855l-1.96976,-2.8931l4.133,-2.81395l1.96977,2.8931z"/><path d="M391.98091,294.91459l1.96977,-2.8931l4.133,2.81396l-1.96976,2.8931z" data-paper-data="{&quot;index&quot;:null}"/><path d="M415.48091,303.47796l1.96977,-2.95646l4.133,2.87559l-1.96976,2.95647z" data-paper-data="{&quot;index&quot;:null}"/><path d="M438.20067,295.85355l-1.96976,-2.95647l4.133,-2.87559l1.96977,2.95646z"/><path d="M467.07567,299.47855l-1.96976,-2.95647l4.133,-2.87559l1.96977,2.95646z"/></g><g data-paper-data="{&quot;index&quot;:null}"><path d="M463.13814,339.0657l1.69975,-3.05956l4.37079,2.42821l-1.69975,3.05955z"/><path d="M427.84771,348.69529l-1.09677,-3.32372l4.74817,-1.56682l1.09677,3.32372z"/><path d="M446.13814,368.56569l1.69975,-3.05955l4.37079,2.42822l-1.69975,3.05955z"/><path d="M416.13814,377.56569l1.69975,-3.05955l4.37079,2.42822l-1.69975,3.05955z"/><path d="M387.38814,351.8157l1.69975,-3.05955l4.37079,2.42821l-1.69975,3.05955z"/><path d="M358.63814,376.31569l1.69975,-3.05955l4.37079,2.42822l-1.69975,3.05955z"/><path d="M325.83789,363.49391l-1.69975,-3.05955l4.37079,-2.42822l1.69975,3.05955z" data-paper-data="{&quot;index&quot;:null}"/><path d="M292.88813,374.31569l1.69975,-3.05955l4.37079,2.42822l-1.69975,3.05955z"/><path d="M261.99924,353.20459l1.69975,-3.05955l4.37079,2.42821l-1.69975,3.05955z"/><path d="M232.64979,341.59516l1.96977,-2.8931l4.133,2.81395l-1.96976,2.8931z"/><path d="M212.09424,362.0396l1.96977,-2.8931l4.133,2.81395l-1.96976,2.8931z"/><path d="M183.564,350.35356l-1.96976,-2.8931l4.133,-2.81396l1.96977,2.8931z" data-paper-data="{&quot;index&quot;:null}"/><path d="M238.939,386.10356l-1.96976,-2.8931l4.133,-2.81396l1.96977,2.8931z" data-paper-data="{&quot;index&quot;:null}"/><path d="M193.46924,387.5396l1.96977,-2.8931l4.133,2.81395l-1.96976,2.8931z"/><path d="M154.439,367.35356l-1.96976,-2.8931l4.133,-2.81396l1.96977,2.8931z" data-paper-data="{&quot;index&quot;:null}"/><path d="M128.46924,351.1646l1.96977,-2.8931l4.133,2.81395l-1.96976,2.8931z"/><path d="M127.09424,380.9146l1.96977,-2.8931l4.133,2.81395l-1.96976,2.8931z"/><path d="M100.064,364.72856l-1.96976,-2.8931l4.133,-2.81396l1.96977,2.8931z" data-paper-data="{&quot;index&quot;:null}"/><path d="M76.564,373.35356l-1.96976,-2.95647l4.133,-2.87559l1.96977,2.95646z" data-paper-data="{&quot;index&quot;:null}"/><path d="M53.84424,359.97795l1.96977,-2.95646l4.133,2.87559l-1.96976,2.95647z"/><path d="M24.96924,363.60295l1.96977,-2.95646l4.133,2.87559l-1.96976,2.95647z"/></g></g><g><g><path d="M20.66898,374.09389l-1.69975,-3.05955l4.37079,-2.42821l1.69975,3.05956z"/><path d="M55.58203,379.72846l1.09677,-3.32372l4.74817,1.56682l-1.09677,3.32372z"/><path d="M37.66898,403.5939l-1.69975,-3.05955l4.37079,-2.42822l1.69975,3.05955z"/><path d="M67.66898,412.5939l-1.69975,-3.05955l4.37079,-2.42822l1.69975,3.05955z"/><path d="M96.41898,386.8439l-1.69975,-3.05955l4.37079,-2.42821l1.69975,3.05955z"/><path d="M125.16898,411.3439l-1.69975,-3.05955l4.37079,-2.42822l1.69975,3.05955z"/><path d="M157.96923,393.66568l1.69975,-3.05955l4.37079,2.42822l-1.69975,3.05955z" data-paper-data="{&quot;index&quot;:null}"/><path d="M190.91898,409.3439l-1.69975,-3.05955l4.37079,-2.42822l1.69975,3.05955z"/><path d="M221.80787,388.23279l-1.69975,-3.05955l4.37079,-2.42821l1.69975,3.05955z"/><path d="M251.39511,377.0091l-1.96976,-2.8931l4.133,-2.81395l1.96977,2.8931z"/><path d="M271.95066,397.45354l-1.96976,-2.8931l4.133,-2.81395l1.96977,2.8931z"/><path d="M300.4809,380.13959l1.96977,-2.8931l4.133,2.81396l-1.96976,2.8931z" data-paper-data="{&quot;index&quot;:null}"/><path d="M245.1059,415.88959l1.96977,-2.8931l4.133,2.81396l-1.96976,2.8931z" data-paper-data="{&quot;index&quot;:null}"/><path d="M290.57566,422.95354l-1.96976,-2.8931l4.133,-2.81395l1.96977,2.8931z"/><path d="M329.6059,397.13959l1.96977,-2.8931l4.133,2.81396l-1.96976,2.8931z" data-paper-data="{&quot;index&quot;:null}"/><path d="M355.57566,386.57854l-1.96976,-2.8931l4.133,-2.81395l1.96977,2.8931z"/><path d="M356.95066,416.32854l-1.96976,-2.8931l4.133,-2.81395l1.96977,2.8931z"/><path d="M383.9809,394.51459l1.96977,-2.8931l4.133,2.81396l-1.96976,2.8931z" data-paper-data="{&quot;index&quot;:null}"/><path d="M407.4809,403.07795l1.96977,-2.95646l4.133,2.87559l-1.96976,2.95647z" data-paper-data="{&quot;index&quot;:null}"/><path d="M430.20066,395.45354l-1.96976,-2.95647l4.133,-2.87559l1.96977,2.95646z"/><path d="M459.07566,399.07854l-1.96976,-2.95647l4.133,-2.87559l1.96977,2.95646z"/></g><g data-paper-data="{&quot;index&quot;:null}"><path d="M455.13814,438.6657l1.69975,-3.05956l4.37079,2.42821l-1.69975,3.05955z"/><path d="M419.84771,448.29529l-1.09677,-3.32372l4.74817,-1.56682l1.09677,3.32372z"/><path d="M438.13814,468.16569l1.69975,-3.05955l4.37079,2.42822l-1.69975,3.05955z"/><path d="M408.13814,477.16569l1.69975,-3.05955l4.37079,2.42822l-1.69975,3.05955z"/><path d="M379.38814,451.4157l1.69975,-3.05955l4.37079,2.42821l-1.69975,3.05955z"/><path d="M350.63814,475.91569l1.69975,-3.05955l4.37079,2.42822l-1.69975,3.05955z"/><path d="M317.83789,463.09391l-1.69975,-3.05955l4.37079,-2.42822l1.69975,3.05955z" data-paper-data="{&quot;index&quot;:null}"/><path d="M284.88814,473.91569l1.69975,-3.05955l4.37079,2.42822l-1.69975,3.05955z"/><path d="M253.99924,452.80459l1.69975,-3.05955l4.37079,2.42821l-1.69975,3.05955z"/><path d="M224.64979,441.19516l1.96977,-2.8931l4.133,2.81395l-1.96976,2.8931z"/><path d="M204.09423,461.63961l1.96977,-2.8931l4.133,2.81395l-1.96976,2.8931z"/><path d="M175.56399,449.95356l-1.96976,-2.8931l4.133,-2.81396l1.96977,2.8931z" data-paper-data="{&quot;index&quot;:null}"/><path d="M230.939,485.70357l-1.96976,-2.8931l4.133,-2.81396l1.96977,2.8931z" data-paper-data="{&quot;index&quot;:null}"/><path d="M185.46923,487.13959l1.96977,-2.8931l4.133,2.81395l-1.96976,2.8931z"/><path d="M146.43899,466.95356l-1.96976,-2.8931l4.133,-2.81396l1.96977,2.8931z" data-paper-data="{&quot;index&quot;:null}"/><path d="M120.46923,450.76461l1.96977,-2.8931l4.133,2.81395l-1.96976,2.8931z"/><path d="M119.09423,480.51459l1.96977,-2.8931l4.133,2.81395l-1.96976,2.8931z"/><path d="M92.06399,464.32856l-1.96976,-2.8931l4.133,-2.81396l1.96977,2.8931z" data-paper-data="{&quot;index&quot;:null}"/><path d="M68.56399,472.95356l-1.96976,-2.95647l4.133,-2.87559l1.96977,2.95646z" data-paper-data="{&quot;index&quot;:null}"/><path d="M45.84423,459.57795l1.96977,-2.95646l4.133,2.87559l-1.96976,2.95647z"/><path d="M16.96923,463.20295l1.96977,-2.95646l4.133,2.87559l-1.96976,2.95647z"/></g><g data-paper-data="{&quot;index&quot;:null}"><path d="M26.03978,554.894l-1.69975,3.05956l-4.37079,-2.42821l1.69975,-3.05955z"/><path d="M61.33021,545.26441l1.09677,3.32372l-4.74817,1.56682l-1.09677,-3.32372z"/><path d="M43.03978,525.394l-1.69975,3.05955l-4.37079,-2.42822l1.69975,-3.05955z"/><path d="M73.03978,516.394l-1.69975,3.05955l-4.37079,-2.42822l1.69975,-3.05955z"/><path d="M101.78978,542.144l-1.69975,3.05955l-4.37079,-2.42821l1.69975,-3.05955z"/><path d="M130.53978,517.644l-1.69975,3.05955l-4.37079,-2.42822l1.69975,-3.05955z"/><path d="M163.34003,530.46578l1.69975,3.05955l-4.37079,2.42822l-1.69975,-3.05955z" data-paper-data="{&quot;index&quot;:null}"/><path d="M196.28978,519.644l-1.69975,3.05955l-4.37079,-2.42822l1.69975,-3.05955z"/><path d="M227.17867,540.75511l-1.69975,3.05955l-4.37079,-2.42821l1.69975,-3.05955z"/><path d="M256.52813,552.36453l-1.96977,2.8931l-4.133,-2.81395l1.96976,-2.8931z"/><path d="M277.08368,531.92008l-1.96977,2.8931l-4.133,-2.81395l1.96976,-2.8931z"/><path d="M305.61392,543.60613l1.96976,2.8931l-4.133,2.81396l-1.96977,-2.8931z" data-paper-data="{&quot;index&quot;:null}"/><path d="M250.23892,507.85613l1.96976,2.8931l-4.133,2.81396l-1.96977,-2.8931z" data-paper-data="{&quot;index&quot;:null}"/><path d="M295.70868,506.42008l-1.96977,2.8931l-4.133,-2.81395l1.96976,-2.8931z"/><path d="M334.73892,526.60613l1.96976,2.8931l-4.133,2.81396l-1.96977,-2.8931z" data-paper-data="{&quot;index&quot;:null}"/><path d="M360.70868,542.79508l-1.96977,2.8931l-4.133,-2.81395l1.96976,-2.8931z"/><path d="M362.08368,513.04508l-1.96977,2.8931l-4.133,-2.81395l1.96976,-2.8931z"/><path d="M389.11392,529.23113l1.96976,2.8931l-4.133,2.81396l-1.96977,-2.8931z" data-paper-data="{&quot;index&quot;:null}"/><path d="M412.61392,520.60613l1.96976,2.95647l-4.133,2.87559l-1.96977,-2.95646z" data-paper-data="{&quot;index&quot;:null}"/><path d="M435.33368,533.98174l-1.96977,2.95646l-4.133,-2.87559l1.96976,-2.95647z"/><path d="M464.20868,530.35674l-1.96977,2.95646l-4.133,-2.87559l1.96976,-2.95647z"/></g><g data-paper-data="{&quot;index&quot;:null}"><path d="M460.50893,619.46579l1.69975,3.05955l-4.37079,2.42821l-1.69975,-3.05956z"/><path d="M425.59588,613.83122l-1.09677,3.32372l-4.74817,-1.56682l1.09677,-3.32372z"/><path d="M443.50893,589.96578l1.69975,3.05955l-4.37079,2.42822l-1.69975,-3.05955z"/><path d="M413.50893,580.96578l1.69975,3.05955l-4.37079,2.42822l-1.69975,-3.05955z"/><path d="M384.75893,606.71579l1.69975,3.05955l-4.37079,2.42821l-1.69975,-3.05955z"/><path d="M356.00893,582.21578l1.69975,3.05955l-4.37079,2.42822l-1.69975,-3.05955z"/><path d="M323.20868,599.894l-1.69975,3.05955l-4.37079,-2.42822l1.69975,-3.05955z" data-paper-data="{&quot;index&quot;:null}"/><path d="M290.25892,584.21578l1.69975,3.05955l-4.37079,2.42822l-1.69975,-3.05955z"/><path d="M259.37003,605.32688l1.69975,3.05955l-4.37079,2.42821l-1.69975,-3.05955z"/><path d="M229.7828,616.55059l1.96976,2.8931l-4.133,2.81395l-1.96977,-2.8931z"/><path d="M209.22725,596.10615l1.96976,2.8931l-4.133,2.81395l-1.96977,-2.8931z"/><path d="M180.69701,613.42008l-1.96977,2.8931l-4.133,-2.81396l1.96976,-2.8931z" data-paper-data="{&quot;index&quot;:null}"/><path d="M236.07201,577.67008l-1.96977,2.8931l-4.133,-2.81396l1.96976,-2.8931z" data-paper-data="{&quot;index&quot;:null}"/><path d="M190.60225,570.60615l1.96976,2.8931l-4.133,2.81395l-1.96977,-2.8931z"/><path d="M151.572,596.42008l-1.96977,2.8931l-4.133,-2.81396l1.96976,-2.8931z" data-paper-data="{&quot;index&quot;:null}"/><path d="M125.60224,606.98114l1.96976,2.8931l-4.133,2.81395l-1.96977,-2.8931z"/><path d="M124.22724,577.23115l1.96976,2.8931l-4.133,2.81395l-1.96977,-2.8931z"/><path d="M97.19701,599.04508l-1.96977,2.8931l-4.133,-2.81396l1.96976,-2.8931z" data-paper-data="{&quot;index&quot;:null}"/><path d="M73.69701,590.48174l-1.96977,2.95646l-4.133,-2.87559l1.96976,-2.95647z" data-paper-data="{&quot;index&quot;:null}"/><path d="M50.97725,598.10615l1.96976,2.95647l-4.133,2.87559l-1.96977,-2.95646z"/><path d="M22.10225,594.48115l1.96976,2.95647l-4.133,2.87559l-1.96977,-2.95646z"/></g><g><path d="M26.66899,653.09391l-1.69975,-3.05955l4.37079,-2.42821l1.69975,3.05956z"/><path d="M61.58203,658.72848l1.09677,-3.32372l4.74817,1.56682l-1.09677,3.32372z"/><path d="M43.66899,682.59392l-1.69975,-3.05955l4.37079,-2.42822l1.69975,3.05955z"/><path d="M73.66899,691.59392l-1.69975,-3.05955l4.37079,-2.42822l1.69975,3.05955z"/><path d="M102.41899,665.84392l-1.69975,-3.05955l4.37079,-2.42821l1.69975,3.05955z"/><path d="M131.16899,690.34392l-1.69975,-3.05955l4.37079,-2.42822l1.69975,3.05955z"/><path d="M163.96924,672.66569l1.69975,-3.05955l4.37079,2.42822l-1.69975,3.05955z" data-paper-data="{&quot;index&quot;:null}"/><path d="M196.91899,688.34392l-1.69975,-3.05955l4.37079,-2.42822l1.69975,3.05955z"/><path d="M227.80788,667.23281l-1.69975,-3.05955l4.37079,-2.42821l1.69975,3.05955z"/><path d="M257.39512,656.00912l-1.96976,-2.8931l4.133,-2.81395l1.96977,2.8931z"/><path d="M277.95067,676.45356l-1.96976,-2.8931l4.133,-2.81395l1.96977,2.8931z"/><path d="M306.48091,659.1396l1.96977,-2.8931l4.133,2.81396l-1.96976,2.8931z" data-paper-data="{&quot;index&quot;:null}"/><path d="M251.10591,694.88961l1.96977,-2.8931l4.133,2.81396l-1.96976,2.8931z" data-paper-data="{&quot;index&quot;:null}"/><path d="M296.57567,701.95356l-1.96976,-2.8931l4.133,-2.81395l1.96977,2.8931z"/><path d="M335.60591,676.1396l1.96977,-2.8931l4.133,2.81396l-1.96976,2.8931z" data-paper-data="{&quot;index&quot;:null}"/><path d="M361.57567,665.57856l-1.96976,-2.8931l4.133,-2.81395l1.96977,2.8931z"/><path d="M362.95067,695.32856l-1.96976,-2.8931l4.133,-2.81395l1.96977,2.8931z"/><path d="M389.98091,673.5146l1.96977,-2.8931l4.133,2.81396l-1.96976,2.8931z" data-paper-data="{&quot;index&quot;:null}"/><path d="M413.48091,682.07797l1.96977,-2.95646l4.133,2.87559l-1.96976,2.95647z" data-paper-data="{&quot;index&quot;:null}"/><path d="M436.20067,674.45356l-1.96976,-2.95647l4.133,-2.87559l1.96977,2.95646z"/><path d="M465.07567,678.07856l-1.96976,-2.95647l4.133,-2.87559l1.96977,2.95646z"/></g><g data-paper-data="{&quot;index&quot;:null}"><path d="M461.13814,717.66571l1.69975,-3.05956l4.37079,2.42821l-1.69975,3.05955z"/><path d="M425.84771,727.2953l-1.09677,-3.32372l4.74817,-1.56682l1.09677,3.32372z"/><path d="M444.13814,747.1657l1.69975,-3.05955l4.37079,2.42822l-1.69975,3.05955z"/><path d="M414.13814,756.1657l1.69975,-3.05955l4.37079,2.42822l-1.69975,3.05955z"/><path d="M385.38814,730.41571l1.69975,-3.05955l4.37079,2.42821l-1.69975,3.05955z"/><path d="M356.63814,754.9157l1.69975,-3.05955l4.37079,2.42822l-1.69975,3.05955z"/><path d="M323.83789,742.09392l-1.69975,-3.05955l4.37079,-2.42822l1.69975,3.05955z" data-paper-data="{&quot;index&quot;:null}"/><path d="M290.88813,752.9157l1.69975,-3.05955l4.37079,2.42822l-1.69975,3.05955z"/><path d="M259.99924,731.8046l1.69975,-3.05955l4.37079,2.42821l-1.69975,3.05955z"/><path d="M230.64979,720.19517l1.96977,-2.8931l4.133,2.81395l-1.96976,2.8931z"/><path d="M210.09424,740.63961l1.96977,-2.8931l4.133,2.81395l-1.96976,2.8931z"/><path d="M181.564,728.95357l-1.96976,-2.8931l4.133,-2.81396l1.96977,2.8931z" data-paper-data="{&quot;index&quot;:null}"/><path d="M236.939,764.70357l-1.96976,-2.8931l4.133,-2.81396l1.96977,2.8931z" data-paper-data="{&quot;index&quot;:null}"/><path d="M191.46924,766.13961l1.96977,-2.8931l4.133,2.81395l-1.96976,2.8931z"/><path d="M152.439,745.95357l-1.96976,-2.8931l4.133,-2.81396l1.96977,2.8931z" data-paper-data="{&quot;index&quot;:null}"/><path d="M126.46924,729.76461l1.96977,-2.8931l4.133,2.81395l-1.96976,2.8931z"/><path d="M125.09424,759.51461l1.96977,-2.8931l4.133,2.81395l-1.96976,2.8931z"/><path d="M98.064,743.32857l-1.96976,-2.8931l4.133,-2.81396l1.96977,2.8931z" data-paper-data="{&quot;index&quot;:null}"/><path d="M74.564,751.95357l-1.96976,-2.95647l4.133,-2.87559l1.96977,2.95646z" data-paper-data="{&quot;index&quot;:null}"/><path d="M51.84424,738.57796l1.96977,-2.95646l4.133,2.87559l-1.96976,2.95647z"/><path d="M22.96924,742.20296l1.96977,-2.95646l4.133,2.87559l-1.96976,2.95647z"/></g></g></g></g></svg>